<?xml version="1.0" encoding="utf-8"?>
<!-- Generator: Adobe Illustrator 26.0.1, SVG Export Plug-In . SVG Version: 6.00 Build 0)  -->
<svg version="1.1" id="Layer_1" xmlns="http://www.w3.org/2000/svg" xmlns:xlink="http://www.w3.org/1999/xlink" x="0px" y="0px"
	 viewBox="0 0 2122.6 486" style="enable-background:new 0 0 2122.6 486;" xml:space="preserve">
<style type="text/css">
	.st0{fill:#FFFFFF;}
	.st1{fill:#2053EA;}
	.st2{fill:#1C1256;}
</style>
<g>
	<path class="st0" d="M710.3,191.9L647,364.2h-42l-63.2-172.4h37l47.4,137.1l47.2-137.1H710.3z"/>
	<path class="st0" d="M857.2,306.2h-100c0.8,9.9,4.3,17.6,10.4,23.2c6.1,5.6,13.6,8.4,22.5,8.4c12.8,0,22-5.5,27.4-16.5h37.3
		c-4,13.2-11.5,24-22.7,32.5c-11.2,8.5-24.9,12.7-41.2,12.7c-13.2,0-25-2.9-35.4-8.8c-10.5-5.8-18.6-14.1-24.5-24.8
		c-5.8-10.7-8.8-23.1-8.8-37c0-14.2,2.9-26.6,8.6-37.3c5.8-10.7,13.8-18.9,24.2-24.7c10.4-5.8,22.3-8.6,35.8-8.6
		c13,0,24.7,2.8,34.9,8.4c10.3,5.6,18.3,13.5,24,23.8c5.7,10.3,8.5,22.1,8.5,35.4C858.2,297.8,857.9,302.3,857.2,306.2z M822.4,283
		c-0.2-8.9-3.4-16-9.6-21.4c-6.3-5.3-13.9-8-23-8c-8.6,0-15.8,2.6-21.6,7.8c-5.8,5.2-9.4,12.4-10.7,21.6H822.4z"/>
	<path class="st0" d="M923.7,255.8V322c0,4.6,1.1,7.9,3.3,10c2.2,2.1,6,3.1,11.2,3.1h16.1v29.1h-21.7c-29.1,0-43.7-14.2-43.7-42.5
		v-65.9h-16.3v-28.4h16.3v-33.8h34.8v33.8h30.6v28.4H923.7z"/>
	<path class="st0" d="M1105.4,306.2h-100c0.8,9.9,4.3,17.6,10.4,23.2c6.1,5.6,13.6,8.4,22.5,8.4c12.8,0,22-5.5,27.4-16.5h37.3
		c-4,13.2-11.5,24-22.7,32.5c-11.2,8.5-24.9,12.7-41.2,12.7c-13.2,0-25-2.9-35.4-8.8c-10.5-5.8-18.6-14.1-24.5-24.8
		c-5.8-10.7-8.8-23.1-8.8-37c0-14.2,2.9-26.6,8.6-37.3c5.8-10.7,13.8-18.9,24.2-24.7c10.4-5.8,22.3-8.6,35.8-8.6
		c13,0,24.7,2.8,34.9,8.4c10.3,5.6,18.3,13.5,24,23.8c5.7,10.3,8.5,22.1,8.5,35.4C1106.4,297.8,1106.1,302.3,1105.4,306.2z
		 M1070.6,283c-0.2-8.9-3.4-16-9.6-21.4c-6.3-5.3-13.9-8-23-8c-8.6,0-15.8,2.6-21.6,7.8c-5.8,5.2-9.4,12.4-10.7,21.6H1070.6z"/>
	<path class="st0" d="M1166.2,181.5v182.8h-34.6V181.5H1166.2z"/>
	<path class="st0" d="M1234.9,181.5v182.8h-34.6V181.5H1234.9z"/>
	<path class="st0" d="M1271.3,205.3c-4-3.9-6.1-8.7-6.1-14.4c0-5.8,2-10.6,6.1-14.4c4-3.9,9.1-5.8,15.2-5.8c6.1,0,11.2,1.9,15.2,5.8
		c4,3.9,6.1,8.7,6.1,14.4c0,5.8-2,10.6-6.1,14.4c-4,3.9-9.1,5.8-15.2,5.8C1280.4,211.1,1275.3,209.2,1271.3,205.3z M1303.5,227.4
		v136.8h-34.6V227.4H1303.5z"/>
	<path class="st0" d="M1418.1,231.2c7.7,4,13.8,9.3,18.3,15.7v-19.5h34.8v137.8c0,12.7-2.6,24-7.7,34c-5.1,10-12.8,17.9-23,23.7
		c-10.2,5.8-22.6,8.8-37,8.8c-19.4,0-35.4-4.5-47.8-13.6c-12.4-9.1-19.5-21.4-21.1-37h34.3c1.8,6.3,5.7,11.2,11.7,14.9
		c6,3.7,13.3,5.6,21.9,5.6c10,0,18.2-3,24.5-9c6.3-6,9.4-15.1,9.4-27.3V344c-4.4,6.4-10.6,11.8-18.4,16.1
		c-7.8,4.3-16.8,6.4-26.8,6.4c-11.5,0-22.1-3-31.6-8.9c-9.6-5.9-17.1-14.3-22.6-25.1c-5.5-10.8-8.3-23.2-8.3-37.2
		c0-13.8,2.8-26.1,8.3-36.8c5.5-10.7,13-18.9,22.5-24.7c9.5-5.8,20-8.6,31.7-8.6C1401.4,225.2,1410.4,227.2,1418.1,231.2z
		 M1431.5,274.2c-3.3-6-7.7-10.6-13.3-13.8c-5.6-3.2-11.6-4.8-18-4.8c-6.4,0-12.3,1.6-17.8,4.7c-5.4,3.1-9.8,7.7-13.2,13.7
		c-3.4,6-5.1,13.1-5.1,21.4c0,8.2,1.7,15.4,5.1,21.6c3.4,6.2,7.8,10.9,13.3,14.2c5.5,3.3,11.4,4.9,17.7,4.9c6.4,0,12.4-1.6,18-4.8
		c5.6-3.2,10-7.8,13.3-13.8c3.3-6,4.9-13.2,4.9-21.6C1436.4,287.4,1434.8,280.2,1431.5,274.2z"/>
	<path class="st0" d="M1631.3,306.2h-100c0.8,9.9,4.3,17.6,10.4,23.2c6.1,5.6,13.6,8.4,22.5,8.4c12.8,0,22-5.5,27.4-16.5h37.3
		c-4,13.2-11.5,24-22.7,32.5c-11.2,8.5-24.9,12.7-41.2,12.7c-13.2,0-25-2.9-35.4-8.8c-10.5-5.8-18.6-14.1-24.5-24.8
		c-5.8-10.7-8.8-23.1-8.8-37c0-14.2,2.9-26.6,8.6-37.3c5.8-10.7,13.8-18.9,24.2-24.7c10.4-5.8,22.3-8.6,35.8-8.6
		c13,0,24.7,2.8,34.9,8.4c10.3,5.6,18.3,13.5,24,23.8c5.7,10.3,8.5,22.1,8.5,35.4C1632.3,297.8,1631.9,302.3,1631.3,306.2z
		 M1596.5,283c-0.2-8.9-3.4-16-9.6-21.4c-6.3-5.3-13.9-8-23-8c-8.6,0-15.8,2.6-21.6,7.8c-5.8,5.2-9.4,12.4-10.7,21.6H1596.5z"/>
	<path class="st0" d="M1772.8,240.9c10,10.3,15.1,24.7,15.1,43.1v80.3h-34.6v-75.6c0-10.9-2.7-19.2-8.2-25.1
		c-5.4-5.8-12.8-8.8-22.2-8.8c-9.6,0-17.1,2.9-22.6,8.8c-5.5,5.8-8.3,14.2-8.3,25.1v75.6h-34.6V227.4h34.6v17
		c4.6-5.9,10.5-10.6,17.7-14c7.2-3.4,15-5.1,23.6-5.1C1749.6,225.4,1762.8,230.6,1772.8,240.9z"/>
	<path class="st0" d="M1820.5,258.7c5.8-10.6,13.7-18.9,24-24.7c10.2-5.8,21.9-8.8,35.1-8.8c17,0,31,4.2,42.1,12.7
		c11.1,8.5,18.6,20.4,22.4,35.7h-37.3c-2-5.9-5.3-10.6-10-14c-4.7-3.4-10.5-5.1-17.4-5.1c-9.9,0-17.7,3.6-23.5,10.7
		c-5.8,7.2-8.6,17.3-8.6,30.5c0,13,2.9,23.1,8.6,30.3c5.8,7.2,13.6,10.7,23.5,10.7c14,0,23.1-6.3,27.4-18.8h37.3
		c-3.8,14.8-11.3,26.6-22.5,35.3c-11.2,8.7-25.2,13.1-42,13.1c-13.2,0-24.9-2.9-35.1-8.8c-10.2-5.8-18.2-14.1-24-24.7
		c-5.8-10.6-8.6-23-8.6-37.2C1811.8,281.7,1814.7,269.3,1820.5,258.7z"/>
	<path class="st0" d="M2095.6,306.2h-100c0.8,9.9,4.3,17.6,10.4,23.2c6.1,5.6,13.6,8.4,22.5,8.4c12.8,0,22-5.5,27.4-16.5h37.3
		c-4,13.2-11.5,24-22.7,32.5c-11.2,8.5-24.9,12.7-41.2,12.7c-13.2,0-25-2.9-35.4-8.8c-10.5-5.8-18.6-14.1-24.5-24.8
		c-5.8-10.7-8.8-23.1-8.8-37c0-14.2,2.9-26.6,8.6-37.3c5.8-10.7,13.8-18.9,24.2-24.7c10.4-5.8,22.3-8.6,35.8-8.6
		c13,0,24.7,2.8,34.9,8.4c10.3,5.6,18.3,13.5,24,23.8c5.7,10.3,8.5,22.1,8.5,35.4C2096.6,297.8,2096.3,302.3,2095.6,306.2z
		 M2060.8,283c-0.2-8.9-3.4-16-9.6-21.4c-6.3-5.3-13.9-8-23-8c-8.6,0-15.8,2.6-21.6,7.8c-5.8,5.2-9.4,12.4-10.7,21.6H2060.8z"/>
</g>
<g>
	<path class="st0" d="M353.8,364.3c-1.9,0-3.7,0.3-5.4,0.8l-2.5-2.1l-16.8-13.8L329,349l-77.7-64.3l-2.3-1.9
		c0.2-1.1,0.3-2.2,0.3-3.4c0-11.1-9-20.1-20.1-20.1c-11.1,0-20.1,9-20.1,20.1s9,20.1,20.1,20.1c1.9,0,3.7-0.3,5.4-0.8l69.3,57.4
		l20.6,17.1l8.5,7l1.1,0.9c-0.2,1.1-0.3,2.2-0.3,3.3c0,11.1,9,20.1,20.1,20.1s20.1-9,20.1-20.1C373.9,373.2,364.9,364.3,353.8,364.3
		z"/>
	<path class="st0" d="M310.8,393.5c-2.4,0-4.6,0.4-6.7,1.2l-67.8-56.1l-16.8-13.8l-0.1-0.1l-75.3-62.4c0-0.3,0-0.6,0-0.9
		c0-11.1-9-20.1-20.1-20.1c-11.1,0-20.1,9-20.1,20.1s9,20.1,20.1,20.1c2.7,0,5.4-0.6,7.8-1.6l62.6,51.8l20.6,17.1l75.8,62.9
		c-0.1,0.7-0.1,1.3-0.1,2c0,11.1,9,20.1,20.1,20.1c11.1,0,20.1-9,20.1-20.1C330.9,402.5,321.9,393.5,310.8,393.5z"/>
	<path class="st0" d="M169,244.2c0,0.3,0,0.6,0,0.9c0,11.1,9,20.1,20.1,20.1c11.1,0,20.1-9,20.1-20.1c0-11.1-9-20.1-20.1-20.1
		c-2.7,0-5.3,0.6-7.7,1.5l-58-48l-2.4-2c0.2-1.1,0.3-2.2,0.3-3.4c0-11.1-9-20.1-20.1-20.1c-11.1,0-20.1,9-20.1,20.1
		c0,11.1,9,20.1,20.1,20.1c1.9,0,3.7-0.3,5.4-0.8L169,244.2z"/>
</g>
<g>
	<path class="st0" d="M333.1,170.1c-19.9-19.1-53.9-16.9-54.7-16.8h-93.5l0,0L23.6,19.8l12.3,165.2c4.3,56.1,31.5,108.8,74.8,144.7
		l138.6,115c0,0.5-0.1,1-0.1,1.6c0,11.1,9,20.1,20.1,20.1s20.1-9,20.1-20.1s-9-20.1-20.1-20.1c-2.5,0-4.9,0.5-7.1,1.3L124.4,313.1
		c-38.8-32.1-63.2-79.5-67-129.8L48.7,68.5L245.1,231l18.3,15.2l20.6,17.1l95,78.7l16.8,13.9l0,0l0,0l0,0l0,0l16.8-13.9l0,0l0,0
		l14.8-12.3c43.2-35.8,70.5-88.6,74.7-144.8l12.3-165L333.1,170.1z M279.1,174.8c7.1-0.4,26.1,0.4,37.3,9.1c1.1,0.9,2,1.8,3,2.8
		c2.4,2.5,4.9,4.6,8,6.4c7.3,4.5,15.4,6.5,23.4,8.4c4.8,1.2,9.2,2.3,13,3.6c-12,0.4-26.4,2.4-39.8,7.6c-13.2,5-23.8,12.8-31.7,22.8
		c-0.6,0.8-1.2,1.4-1.8,2c-0.4,0.4-0.8,0.7-1.1,1c-0.3,0.2-0.6,0.4-0.9,0.5l-53.8-44.5l-24-19.8H279.1z M480.7,183.2
		c-3.8,50.4-28.2,97.8-67,129.9L395.8,328l0,0l-87.3-72.3l-3.3-2.7c1.4-1.3,2.7-2.7,4-4.3c5.5-7.1,12.9-12.3,22.5-16.1
		c25.8-10.1,57.3-4.7,57.6-4.7l19.4,3.4l-7.7-18.1c-10.3-24.3-30.5-29.2-45.3-32.6c-0.4-0.2-1-0.3-1.4-0.4l135-111.7L480.7,183.2z"
		/>
	<path class="st0" d="M287.5,192.7c1.2,1.9,3.4,3.1,5.8,3.1c3.8,0,6.9-3.1,6.9-6.9s-3.1-6.9-6.9-6.9h-14.5L287.5,192.7z"/>
</g>
</svg>
