<?xml version="1.0" encoding="utf-8"?>
<!-- Generator: Adobe Illustrator 26.0.1, SVG Export Plug-In . SVG Version: 6.00 Build 0)  -->
<svg version="1.1" id="Layer_1" xmlns="http://www.w3.org/2000/svg" xmlns:xlink="http://www.w3.org/1999/xlink" x="0px" y="0px"
	 viewBox="0 0 530.5 486" style="enable-background:new 0 0 530.5 486;" xml:space="preserve">
<style type="text/css">
	.st0{fill:#FFFFFF;}
	.st1{fill:#2053EA;}
	.st2{fill:#1C1256;}
</style>
<g>
	<path class="st0" d="M354.1,364.3c-1.9,0-3.7,0.3-5.4,0.8l-2.5-2.1l-16.8-13.8l-0.1-0.1l-77.7-64.3l-2.3-1.9
		c0.2-1.1,0.3-2.2,0.3-3.4c0-11.1-9-20.1-20.1-20.1c-11.1,0-20.1,9-20.1,20.1s9,20.1,20.1,20.1c1.9,0,3.7-0.3,5.4-0.8l69.3,57.4
		l20.6,17.1l8.5,7l1.1,0.9c-0.2,1.1-0.3,2.2-0.3,3.3c0,11.1,9,20.1,20.1,20.1s20.1-9,20.1-20.1C374.2,373.2,365.2,364.3,354.1,364.3
		z"/>
	<path class="st0" d="M311.1,393.5c-2.4,0-4.6,0.4-6.7,1.2l-67.8-56.1l-16.8-13.8l-0.1-0.1l-75.3-62.4c0-0.3,0-0.6,0-0.9
		c0-11.1-9-20.1-20.1-20.1c-11.1,0-20.1,9-20.1,20.1s9,20.1,20.1,20.1c2.7,0,5.4-0.6,7.8-1.6l62.6,51.8l20.6,17.1l75.8,62.9
		c-0.1,0.7-0.1,1.3-0.1,2c0,11.1,9,20.1,20.1,20.1c11.1,0,20.1-9,20.1-20.1C331.2,402.5,322.2,393.5,311.1,393.5z"/>
	<path class="st0" d="M169.2,244.2c0,0.3,0,0.6,0,0.9c0,11.1,9,20.1,20.1,20.1c11.1,0,20.1-9,20.1-20.1c0-11.1-9-20.1-20.1-20.1
		c-2.7,0-5.3,0.6-7.7,1.5l-58-48l-2.4-2c0.2-1.1,0.3-2.2,0.3-3.4c0-11.1-9-20.1-20.1-20.1c-11.1,0-20.1,9-20.1,20.1
		c0,11.1,9,20.1,20.1,20.1c1.9,0,3.7-0.3,5.4-0.8L169.2,244.2z"/>
</g>
<g>
	<path class="st0" d="M333.3,170.1c-19.9-19.1-53.9-16.9-54.7-16.8h-93.5l0,0L23.8,19.8l12.3,165.2c4.3,56.1,31.5,108.8,74.8,144.7
		l138.6,115c0,0.5-0.1,1-0.1,1.6c0,11.1,9,20.1,20.1,20.1s20.1-9,20.1-20.1s-9-20.1-20.1-20.1c-2.5,0-4.9,0.5-7.1,1.3L124.7,313.1
		c-38.8-32.1-63.2-79.5-67-129.8L48.9,68.5L245.3,231l18.3,15.2l20.6,17.1l95,78.7l16.8,13.9l0,0l0,0l0,0l0,0l16.8-13.9l0,0l0,0
		l14.8-12.3c43.2-35.8,70.5-88.6,74.7-144.8l12.3-165L333.3,170.1z M279.4,174.8c7.1-0.4,26.1,0.4,37.3,9.1c1.1,0.9,2,1.8,3,2.8
		c2.4,2.5,4.9,4.6,8,6.4c7.3,4.5,15.4,6.5,23.4,8.4c4.8,1.2,9.2,2.3,13,3.6c-12,0.4-26.4,2.4-39.8,7.6c-13.2,5-23.8,12.8-31.7,22.8
		c-0.6,0.8-1.2,1.4-1.8,2c-0.4,0.4-0.8,0.7-1.1,1c-0.3,0.2-0.6,0.4-0.9,0.5L235,194.6l-24-19.8H279.4z M481,183.2
		c-3.8,50.4-28.2,97.8-67,129.9L396.1,328l0,0l-87.3-72.3l-3.3-2.7c1.4-1.3,2.7-2.7,4-4.3c5.5-7.1,12.9-12.3,22.5-16.1
		c25.8-10.1,57.3-4.7,57.6-4.7l19.4,3.4l-7.7-18.1c-10.3-24.3-30.5-29.2-45.3-32.6c-0.4-0.2-1-0.3-1.4-0.4l135-111.7L481,183.2z"/>
	<path class="st0" d="M287.7,192.7c1.2,1.9,3.4,3.1,5.8,3.1c3.8,0,6.9-3.1,6.9-6.9s-3.1-6.9-6.9-6.9h-14.5L287.7,192.7z"/>
</g>
</svg>
